<?xml version="1.0" standalone="no"?>
<!DOCTYPE svg PUBLIC "-//W3C//DTD SVG 20010904//EN"
 "http://www.w3.org/TR/2001/REC-SVG-20010904/DTD/svg10.dtd">
<svg version="1.0" xmlns="http://www.w3.org/2000/svg"
 width="262.000000pt" height="262.000000pt" viewBox="0 0 262.000000 262.000000"
 preserveAspectRatio="xMidYMid meet">
<metadata>
Created by potrace 1.14, written by Peter Selinger 2001-2017
</metadata>
<g transform="translate(0.000000,262.000000) scale(0.100000,-0.100000)"
fill="#000000" stroke="none">
<path d="M520 1816 c-254 -55 -386 -322 -277 -560 34 -73 114 -151 191 -186
273 -124 575 79 561 378 -12 244 -237 419 -475 368z m97 -108 c-18 -32 -18
-32 5 -50 13 -10 33 -18 45 -18 37 0 34 -16 -7 -49 -28 -22 -40 -40 -40 -57 0
-14 4 -23 9 -19 6 3 22 -10 38 -29 18 -24 30 -31 35 -23 5 8 20 -3 47 -32 32
-34 45 -42 63 -38 17 5 30 -2 55 -28 18 -19 33 -45 33 -57 0 -25 -76 -102 -94
-95 -11 5 -49 -8 -96 -32 -8 -4 -18 -22 -23 -40 -11 -46 -62 -67 -111 -47 -18
8 -42 28 -52 44 -9 17 -25 33 -34 35 -21 5 -60 79 -60 114 0 21 -2 23 -15 13
-12 -10 -18 -6 -35 22 -14 22 -19 41 -15 58 13 50 7 74 -22 97 -15 13 -28 28
-28 35 0 7 -10 14 -22 16 -33 5 -29 33 10 73 17 19 38 46 44 61 12 26 69 65
80 54 3 -3 19 6 35 19 30 25 82 33 93 15 4 -7 14 -5 28 5 19 13 23 13 37 0 13
-14 13 -19 -3 -47z"/>
<path d="M515 1450 c-3 -6 1 -7 9 -4 18 7 21 14 7 14 -6 0 -13 -4 -16 -10z"/>
<path d="M557 1349 c4 -15 0 -22 -17 -26 -16 -4 -18 -8 -8 -14 10 -7 8 -10 -9
-15 -13 -4 -20 -10 -17 -16 3 -5 0 -15 -6 -23 -8 -10 -9 -19 -1 -32 9 -16 10
-16 11 -1 0 9 12 23 26 30 22 11 27 21 31 60 2 25 -1 49 -6 52 -5 3 -7 -3 -4
-15z"/>
<path d="M410 1341 c0 -5 5 -13 10 -16 6 -3 10 -2 10 4 0 5 -4 13 -10 16 -5 3
-10 2 -10 -4z"/>
<path d="M2028 1628 c-4 -10 -15 -18 -24 -18 -13 0 -14 -3 -4 -15 6 -8 9 -19
5 -26 -6 -8 -2 -8 12 0 14 7 24 7 33 -2 10 -10 12 -9 7 4 -3 9 0 22 6 28 8 8
7 11 -5 11 -9 0 -18 8 -20 18 -3 16 -4 16 -10 0z"/>
<path d="M2330 1628 c0 -12 -8 -18 -22 -18 -20 -1 -21 -2 -6 -11 11 -6 15 -16
11 -27 -6 -14 -4 -15 8 -5 12 10 18 10 27 1 9 -9 12 -7 12 9 0 12 6 24 13 26
7 3 5 6 -5 6 -9 1 -22 9 -27 19 -10 16 -10 16 -11 0z"/>
<path d="M1550 1613 c-14 -7 -19 -13 -11 -13 8 0 11 -7 8 -20 -4 -16 -2 -18
12 -10 12 6 22 5 31 -3 10 -10 12 -9 7 5 -4 11 0 21 11 27 15 9 15 10 -5 11
-12 0 -23 4 -25 8 -1 4 -14 2 -28 -5z"/>
<path d="M1720 1619 c0 -5 -10 -9 -22 -10 -13 0 -17 -3 -10 -6 6 -2 12 -14 12
-25 0 -16 3 -18 13 -9 10 8 17 7 25 -1 9 -9 12 -7 12 9 0 12 4 23 10 25 5 2
-2 8 -15 15 -14 6 -25 7 -25 2z"/>
<path d="M1870 1620 c0 -5 -10 -10 -22 -10 -21 0 -21 -1 -3 -13 12 -9 15 -19
10 -28 -7 -11 -6 -12 6 -2 10 8 19 9 25 3 5 -5 13 0 21 16 9 19 8 24 -3 24 -8
0 -14 5 -14 10 0 6 -4 10 -10 10 -5 0 -10 -4 -10 -10z"/>
<path d="M2160 1613 c-14 -7 -19 -13 -12 -13 6 0 12 -10 12 -21 0 -17 3 -19
13 -10 10 8 17 7 27 -2 10 -10 12 -9 7 5 -4 11 0 21 11 27 15 9 15 10 -5 11
-12 0 -23 4 -25 8 -1 4 -14 2 -28 -5z"/>
<path d="M1091 1570 c36 -52 33 -145 -10 -273 -18 -53 -31 -103 -28 -111 3 -7
18 -17 34 -20 40 -10 147 -82 183 -123 16 -18 30 -43 30 -55 0 -14 -33 -53
-92 -111 l-93 -90 70 48 c128 89 177 140 168 175 -3 11 -29 45 -58 77 -49 54
-106 92 -162 108 -28 8 -28 16 -4 96 10 35 22 77 25 93 4 15 9 27 11 24 2 -2
0 -21 -5 -42 -6 -30 -5 -45 7 -62 27 -42 29 -40 120 96 73 109 73 111 1 43
-37 -35 -71 -63 -76 -63 -5 0 -15 14 -22 31 -10 22 -15 27 -21 17 -6 -8 -9 -2
-9 20 0 41 -29 99 -66 132 l-28 25 25 -35z"/>
<path d="M1688 1352 c-32 -4 -38 -22 -8 -22 12 0 20 -7 21 -17 6 -125 4 -130
-33 -124 -5 0 -8 -6 -8 -14 0 -12 13 -15 60 -15 47 0 60 3 60 15 0 8 -9 15
-20 15 -28 0 -26 34 4 48 20 9 27 7 49 -16 20 -21 23 -31 16 -44 -9 -16 -4
-18 56 -18 48 0 64 -3 59 -12 -4 -7 -3 -8 4 -4 18 11 -8 46 -34 46 -45 0 -94
95 -55 108 9 3 11 0 6 -9 -5 -8 -4 -11 1 -6 5 5 9 14 9 20 0 7 15 16 33 22 41
12 36 29 -9 28 -67 -1 -79 -3 -79 -12 0 -5 10 -11 23 -13 19 -3 14 -8 -30 -35
-29 -18 -53 -29 -53 -25 0 4 -5 0 -10 -8 -7 -11 -10 -4 -10 28 0 39 2 42 27
42 21 0 24 3 15 12 -12 12 -44 16 -94 10z m149 -87 c0 -8 -4 -15 -8 -15 -11 0
-20 16 -12 24 11 11 20 7 20 -9z"/>
<path d="M2000 1352 c-6 -2 -10 -17 -10 -33 0 -22 5 -29 20 -29 11 0 19 3 19
8 -4 25 4 32 36 32 l35 0 0 -73 c0 -69 -1 -74 -21 -73 -12 1 -24 -5 -26 -11
-4 -10 14 -13 66 -13 56 0 71 3 71 15 0 8 -3 14 -7 14 -33 -5 -42 2 -39 31 2
17 -1 33 -7 37 -6 4 -3 11 8 20 11 7 13 13 7 13 -7 0 -12 9 -12 20 0 16 7 20
35 20 28 0 35 -4 35 -20 0 -16 7 -20 33 -20 17 0 28 4 22 8 -5 4 -12 16 -13
27 -2 11 -6 22 -8 24 -5 5 -230 7 -244 3z"/>
<path d="M1758 1313 c6 -2 18 -2 25 0 6 3 1 5 -13 5 -14 0 -19 -2 -12 -5z"/>
<path d="M1938 1313 c7 -3 16 -2 19 1 4 3 -2 6 -13 5 -11 0 -14 -3 -6 -6z"/>
<path d="M2053 1313 c9 -2 23 -2 30 0 6 3 -1 5 -18 5 -16 0 -22 -2 -12 -5z"/>
<path d="M2163 1313 c9 -2 23 -2 30 0 6 3 -1 5 -18 5 -16 0 -22 -2 -12 -5z"/>
<path d="M2008 1273 c6 -2 18 -2 25 0 6 3 1 5 -13 5 -14 0 -19 -2 -12 -5z"/>
<path d="M2228 1273 c6 -2 18 -2 25 0 6 3 1 5 -13 5 -14 0 -19 -2 -12 -5z"/>
<path d="M1867 1229 c7 -7 15 -10 18 -7 3 3 -2 9 -12 12 -14 6 -15 5 -6 -5z"/>
<path d="M1755 1219 c-11 -16 -1 -19 13 -3 7 8 8 14 3 14 -5 0 -13 -5 -16 -11z"/>
<path d="M1550 1180 c0 -15 7 -20 25 -20 18 0 25 5 25 20 0 15 -7 20 -25 20
-18 0 -25 -5 -25 -20z"/>
<path d="M2408 1142 c60 -85 -1 -152 -165 -180 -127 -22 -349 -8 -538 33 -38
8 -74 16 -80 16 -5 1 -18 5 -27 10 -10 5 -18 7 -18 4 0 -3 21 -15 48 -26 26
-11 56 -24 67 -29 108 -47 264 -74 425 -74 147 0 156 1 242 30 123 41 144 140
48 229 l-33 30 31 -43z"/>
<path d="M1678 1143 c7 -3 16 -2 19 1 4 3 -2 6 -13 5 -11 0 -14 -3 -6 -6z"/>
<path d="M1748 1143 c6 -2 18 -2 25 0 6 3 1 5 -13 5 -14 0 -19 -2 -12 -5z"/>
<path d="M2068 1143 c7 -3 16 -2 19 1 4 3 -2 6 -13 5 -11 0 -14 -3 -6 -6z"/>
<path d="M2178 1143 c6 -2 18 -2 25 0 6 3 1 5 -13 5 -14 0 -19 -2 -12 -5z"/>
<path d="M895 1008 c-27 -28 -119 -117 -202 -198 -84 -80 -153 -152 -152 -160
0 -9 2 -11 5 -3 7 15 131 110 273 208 116 80 201 153 201 172 0 10 -52 34 -69
33 -3 -1 -28 -24 -56 -52z"/>
</g>
</svg>
